<?xml version="1.0" encoding="iso-8859-1"?>
<!-- Generator: Adobe Illustrator 18.1.1, SVG Export Plug-In . SVG Version: 6.00 Build 0)  -->
<svg version="1.1" id="Capa_1" xmlns="http://www.w3.org/2000/svg" xmlns:xlink="http://www.w3.org/1999/xlink" x="0px" y="0px"
	 viewBox="0 0 89.471 89.471" style="enable-background:new 0 0 89.471 89.471;" xml:space="preserve">
<g>
	<g>
		<path style="fill:#83C269;" d="M57.305,38.015c5.433-2.312,12.515-3.722,22.897-3.429c-4.971-6.32-9.416-10.933-12.079-15.568
			c-7.362,4.245-12.755,8.639-16.771,13.091c-1.85-0.97-3.919-1.568-6.131-1.643c0.691-5.816,2.974-12.63,8.46-21.527
			c-5.966,0-11.928,0-17.894,0c-1.249,10.583-0.433,17.934,1.353,23.696c-1.843,1.156-3.389,2.724-4.542,4.574
			c-4.685-3.411-9.423-8.206-14.319-14.97c-2.455,5.483-4.892,9.169-9.015,12.333c8.485,6.335,15.292,9.359,21.208,10.715
			c0.089,2.23,0.698,4.298,1.689,6.152c-5.433,2.312-12.515,3.718-22.897,3.425c4.967,6.32,9.412,10.933,12.082,15.568
			c7.355-4.245,12.751-8.632,16.763-13.084c1.85,0.97,3.919,1.568,6.138,1.643c-0.691,5.816-2.974,12.63-8.46,21.527
			c5.966,0,11.928,0,17.894,0c1.253-10.583,0.433-17.934-1.356-23.696c1.847-1.156,3.389-2.724,4.545-4.574
			c4.688,3.407,9.43,8.206,14.323,14.96c2.455-5.479,4.889-9.169,9.015-12.329c-8.485-6.335-15.289-9.355-21.212-10.715
			C58.904,41.941,58.296,39.872,57.305,38.015z M44.736,49.209c-2.469,0-4.474-2.008-4.474-4.474c0-2.466,2.004-4.474,4.474-4.474
			c2.466,0,4.474,2.008,4.474,4.474C49.209,47.201,47.201,49.209,44.736,49.209z"/>
		<path style="fill:#E2E67E;" d="M82.314,0H7.158C3.221,0,0,3.221,0,7.158v75.156c0,3.937,3.221,7.158,7.158,7.158h75.156
			c3.937,0,7.158-3.221,7.158-7.158V7.158C89.471,3.221,86.25,0,82.314,0z M6.263,3.579c1.485,0,2.684,1.199,2.684,2.684
			S7.748,8.947,6.263,8.947S3.579,7.748,3.579,6.263S4.778,3.579,6.263,3.579z M6.263,85.892c-1.485,0-2.684-1.199-2.684-2.684
			c0-1.485,1.199-2.684,2.684-2.684s2.684,1.199,2.684,2.684C8.947,84.694,7.748,85.892,6.263,85.892z M44.736,84.103
			c-21.724,0-39.367-17.612-39.367-39.367S23.012,5.368,44.736,5.368S84.103,22.98,84.103,44.736S66.459,84.103,44.736,84.103z
			 M83.208,85.892c-1.485,0-2.684-1.199-2.684-2.684c0-1.485,1.199-2.684,2.684-2.684c1.485,0,2.684,1.199,2.684,2.684
			C85.892,84.694,84.694,85.892,83.208,85.892z M83.208,8.947c-1.485,0-2.684-1.199-2.684-2.684s1.199-2.684,2.684-2.684
			c1.485,0,2.684,1.199,2.684,2.684S84.694,8.947,83.208,8.947z"/>
	</g>
</g>
<g>
</g>
<g>
</g>
<g>
</g>
<g>
</g>
<g>
</g>
<g>
</g>
<g>
</g>
<g>
</g>
<g>
</g>
<g>
</g>
<g>
</g>
<g>
</g>
<g>
</g>
<g>
</g>
<g>
</g>
</svg>
